<svg width="151" height="27" viewBox="0 0 151 27" fill="none" xmlns="http://www.w3.org/2000/svg">
<path d="M0 5.38508V0.755859H18.3928V5.38508H12.0276V21.918H6.36514V5.38508H0Z" fill="#151515"/>
<path d="M25.941 22.2073C24.2464 22.2073 22.786 21.8836 21.5598 21.236C20.3405 20.5816 19.4002 19.6447 18.7389 18.4254C18.0845 17.1992 17.7573 15.7319 17.7573 14.0235C17.7573 12.384 18.0879 10.9512 18.7493 9.72497C19.4106 8.49878 20.344 7.54469 21.5495 6.86271C22.755 6.18073 24.1775 5.83973 25.817 5.83973C27.0157 5.83973 28.1006 6.02573 29.0719 6.39772C30.0432 6.76971 30.8733 7.31047 31.5622 8.02001C32.2511 8.72266 32.7815 9.57686 33.1535 10.5826C33.5255 11.5884 33.7115 12.7216 33.7115 13.9822V15.3048H19.5346V12.1636H28.4623C28.4554 11.7089 28.3383 11.3094 28.111 10.9649C27.8905 10.6136 27.5909 10.3415 27.212 10.1486C26.84 9.94885 26.4164 9.84897 25.941 9.84897C25.4795 9.84897 25.0558 9.94885 24.6701 10.1486C24.2843 10.3415 23.9743 10.6102 23.7401 10.9546C23.5128 11.299 23.3922 11.702 23.3785 12.1636V15.5528C23.3785 16.0626 23.4852 16.5172 23.6988 16.9168C23.9123 17.3163 24.2189 17.6298 24.6184 17.8571C25.018 18.0844 25.5002 18.1981 26.065 18.1981C26.4577 18.1981 26.8159 18.143 27.1397 18.0328C27.4703 17.9225 27.7528 17.7641 27.987 17.5574C28.2212 17.3439 28.3934 17.089 28.5036 16.7928H33.7115C33.5324 17.895 33.1087 18.8525 32.4405 19.6654C31.7723 20.4714 30.8871 21.0982 29.7849 21.546C28.6896 21.9869 27.4083 22.2073 25.941 22.2073Z" fill="#151515"/>
<path d="M41.7428 12.9902V21.918H36.039V6.0464H41.4535V9.06365H41.6188C41.9632 8.0579 42.5694 7.26914 43.4374 6.69738C44.3123 6.12562 45.3318 5.83973 46.496 5.83973C47.6189 5.83973 48.5936 6.09806 49.4202 6.61471C50.2538 7.12448 50.8979 7.82713 51.3525 8.72266C51.8141 9.6182 52.0414 10.6412 52.0345 11.7916V21.918H46.3307V12.9902C46.3376 12.2049 46.1378 11.5884 45.7313 11.1406C45.3318 10.6928 44.7738 10.469 44.0574 10.469C43.589 10.469 43.1791 10.5723 42.8278 10.7789C42.4833 10.9787 42.2181 11.268 42.0321 11.6469C41.8461 12.0189 41.7497 12.4667 41.7428 12.9902Z" fill="#151515"/>
<path d="M60.5954 22.1247C59.4657 22.1247 58.4255 21.8284 57.4748 21.236C56.5311 20.6436 55.7733 19.7446 55.2016 18.5391C54.6367 17.3336 54.3543 15.8146 54.3543 13.9822C54.3543 12.0671 54.6505 10.5103 55.2429 9.31165C55.8422 8.11301 56.6137 7.2347 57.5575 6.67671C58.5081 6.11873 59.507 5.83973 60.5541 5.83973C61.3394 5.83973 62.0282 5.97751 62.6207 6.25306C63.2131 6.52172 63.7091 6.88337 64.1086 7.33803C64.5082 7.7858 64.8113 8.27834 65.0179 8.81566H65.1006V0.755859H70.8044V21.918H65.1419V19.3141H65.0179C64.7975 19.8514 64.4806 20.3336 64.0673 20.7607C63.6609 21.1809 63.1649 21.515 62.5793 21.763C62.0007 22.0041 61.3394 22.1247 60.5954 22.1247ZM62.7033 17.7434C63.2269 17.7434 63.6746 17.5919 64.0466 17.2888C64.4255 16.9788 64.7148 16.5448 64.9146 15.9868C65.1213 15.4219 65.2246 14.7537 65.2246 13.9822C65.2246 13.1969 65.1213 12.5252 64.9146 11.9672C64.7148 11.4024 64.4255 10.9718 64.0466 10.6756C63.6746 10.3725 63.2269 10.221 62.7033 10.221C62.1798 10.221 61.732 10.3725 61.36 10.6756C60.9949 10.9718 60.7125 11.4024 60.5127 11.9672C60.3198 12.5252 60.2234 13.1969 60.2234 13.9822C60.2234 14.7675 60.3198 15.4426 60.5127 16.0075C60.7125 16.5655 60.9949 16.996 61.36 17.2991C61.732 17.5953 62.1798 17.7434 62.7033 17.7434Z" fill="#151515"/>
<path d="M81.2098 22.2073C79.5152 22.2073 78.0548 21.8836 76.8286 21.236C75.6093 20.5816 74.669 19.6447 74.0077 18.4254C73.3532 17.1992 73.026 15.7319 73.026 14.0235C73.026 12.384 73.3567 10.9512 74.018 9.72497C74.6793 8.49878 75.6127 7.54469 76.8182 6.86271C78.0238 6.18073 79.4463 5.83973 81.0858 5.83973C82.2844 5.83973 83.3694 6.02573 84.3407 6.39772C85.312 6.76971 86.1421 7.31047 86.8309 8.02001C87.5198 8.72266 88.0502 9.57686 88.4222 10.5826C88.7942 11.5884 88.9802 12.7216 88.9802 13.9822V15.3048H74.8033V12.1636H83.731C83.7241 11.7089 83.607 11.3094 83.3797 10.9649C83.1593 10.6136 82.8596 10.3415 82.4807 10.1486C82.1087 9.94885 81.6851 9.84897 81.2098 9.84897C80.7482 9.84897 80.3246 9.94885 79.9388 10.1486C79.553 10.3415 79.243 10.6102 79.0088 10.9546C78.7815 11.299 78.661 11.702 78.6472 12.1636V15.5528C78.6472 16.0626 78.754 16.5172 78.9675 16.9168C79.1811 17.3163 79.4876 17.6298 79.8871 17.8571C80.2867 18.0844 80.7689 18.1981 81.3338 18.1981C81.7264 18.1981 82.0846 18.143 82.4084 18.0328C82.7391 17.9225 83.0215 17.7641 83.2557 17.5574C83.4899 17.3439 83.6621 17.089 83.7724 16.7928H88.9802C88.8011 17.895 88.3774 18.8525 87.7092 19.6654C87.041 20.4714 86.1558 21.0982 85.0536 21.546C83.9583 21.9869 82.6771 22.2073 81.2098 22.2073Z" fill="#151515"/>
<path d="M91.3077 21.918V6.0464H96.8462V9.06365H97.0115C97.3009 7.94768 97.7589 7.13137 98.3858 6.61471C99.0196 6.09806 99.7601 5.83973 100.607 5.83973C100.855 5.83973 101.1 5.8604 101.341 5.90173C101.589 5.93618 101.827 5.98784 102.054 6.05673V10.9236C101.772 10.8272 101.424 10.7548 101.01 10.7066C100.597 10.6584 100.242 10.6343 99.9461 10.6343C99.3881 10.6343 98.8853 10.7617 98.4375 11.0166C97.9966 11.2646 97.6487 11.6159 97.3939 12.0706C97.139 12.5183 97.0115 13.0453 97.0115 13.6515V21.918H91.3077Z" fill="#151515"/>
<path d="M103.842 21.918V0.755859H109.545V8.81566H109.628C109.835 8.27834 110.138 7.7858 110.537 7.33803C110.937 6.88337 111.433 6.52172 112.025 6.25306C112.618 5.97751 113.307 5.83973 114.092 5.83973C115.139 5.83973 116.134 6.11873 117.078 6.67671C118.029 7.2347 118.8 8.11301 119.393 9.31165C119.992 10.5103 120.292 12.0671 120.292 13.9822C120.292 15.8146 120.006 17.3336 119.434 18.5391C118.869 19.7446 118.112 20.6436 117.161 21.236C116.217 21.8284 115.18 22.1247 114.051 22.1247C113.307 22.1247 112.642 22.0041 112.056 21.763C111.478 21.515 110.982 21.1809 110.568 20.7607C110.162 20.3336 109.849 19.8514 109.628 19.3141H109.504V21.918H103.842ZM109.421 13.9822C109.421 14.7537 109.521 15.4219 109.721 15.9868C109.928 16.5448 110.217 16.9788 110.589 17.2888C110.968 17.5919 111.419 17.7434 111.943 17.7434C112.466 17.7434 112.911 17.5953 113.276 17.2991C113.648 16.996 113.93 16.5655 114.123 16.0075C114.323 15.4426 114.423 14.7675 114.423 13.9822C114.423 13.1969 114.323 12.5252 114.123 11.9672C113.93 11.4024 113.648 10.9718 113.276 10.6756C112.911 10.3725 112.466 10.221 111.943 10.221C111.419 10.221 110.968 10.3725 110.589 10.6756C110.217 10.9718 109.928 11.4024 109.721 11.9672C109.521 12.5252 109.421 13.1969 109.421 13.9822Z" fill="#151515"/>
<path d="M130.325 22.2073C128.603 22.2073 127.129 21.8663 125.903 21.1844C124.676 20.4955 123.736 19.538 123.082 18.3118C122.427 17.0787 122.1 15.6493 122.1 14.0235C122.1 12.3978 122.427 10.9718 123.082 9.74564C123.736 8.51256 124.676 7.55502 125.903 6.87304C127.129 6.18417 128.603 5.83973 130.325 5.83973C132.047 5.83973 133.522 6.18417 134.748 6.87304C135.974 7.55502 136.914 8.51256 137.569 9.74564C138.223 10.9718 138.55 12.3978 138.55 14.0235C138.55 15.6493 138.223 17.0787 137.569 18.3118C136.914 19.538 135.974 20.4955 134.748 21.1844C133.522 21.8663 132.047 22.2073 130.325 22.2073ZM130.367 17.9914C130.849 17.9914 131.265 17.8295 131.617 17.5058C131.968 17.182 132.24 16.7205 132.433 16.1211C132.626 15.5218 132.722 14.8088 132.722 13.9822C132.722 13.1487 132.626 12.4357 132.433 11.8433C132.24 11.2439 131.968 10.7824 131.617 10.4586C131.265 10.1348 130.849 9.97296 130.367 9.97296C129.857 9.97296 129.419 10.1348 129.054 10.4586C128.689 10.7824 128.41 11.2439 128.217 11.8433C128.024 12.4357 127.928 13.1487 127.928 13.9822C127.928 14.8088 128.024 15.5218 128.217 16.1211C128.41 16.7205 128.689 17.182 129.054 17.5058C129.419 17.8295 129.857 17.9914 130.367 17.9914Z" fill="#078EE6"/>
<path d="M150.33 6.0464V10.1796H139.873V6.0464H150.33ZM141.898 2.24382H147.602V16.8135C147.602 17.0339 147.64 17.2199 147.716 17.3714C147.791 17.5161 147.909 17.6263 148.067 17.7021C148.225 17.771 148.429 17.8054 148.677 17.8054C148.849 17.8054 149.049 17.7848 149.276 17.7434C149.51 17.7021 149.682 17.6677 149.793 17.6401L150.619 21.6493C150.364 21.7251 149.999 21.8181 149.524 21.9283C149.055 22.0386 148.498 22.1109 147.85 22.1453C146.541 22.2142 145.442 22.0799 144.554 21.7423C143.665 21.3979 142.997 20.8571 142.549 20.12C142.101 19.383 141.884 18.4599 141.898 17.3508V2.24382Z" fill="#151515"/>
<path d="M137.302 20.3252L134.296 23.2585L137.566 26.5043L140.523 23.547L137.302 20.3252Z" fill="#078EE6"/>
</svg>
