<svg width="141" height="28" viewBox="0 0 141 28" fill="none" xmlns="http://www.w3.org/2000/svg">
<path fill-rule="evenodd" clip-rule="evenodd" d="M5.05877 0C7.50441 0 9.49189 1.99561 9.49189 4.4578C9.49189 6.91343 7.50441 8.90904 5.05877 8.90904C2.60662 8.90904 0.619141 6.91343 0.619141 4.4578C0.619141 1.99561 2.60662 0 5.05877 0Z" fill="url(#paint0_radial_3078_9462)"/>
<path fill-rule="evenodd" clip-rule="evenodd" d="M25.6562 4.30203C21.3279 -0.0488281 14.7491 -0.758312 9.68199 2.16548C10.0659 2.88468 10.2853 3.70593 10.2853 4.57902C10.2853 7.39104 8.00908 9.67823 5.2069 9.67823C4.68744 9.67823 4.18573 9.59886 3.71466 9.4547C2.15467 14.0971 3.21618 19.4328 6.90402 23.1309C12.0809 28.3354 20.4793 28.3354 25.6562 23.1309C30.8379 17.9329 30.8379 9.50005 25.6562 4.30203ZM21.1875 18.644C18.4741 21.3637 14.0813 21.3637 11.3727 18.644C8.66405 15.9243 8.66405 11.5135 11.3727 8.78895C14.0813 6.06926 18.4741 6.06926 21.1875 8.78895C23.8945 11.5135 23.8945 15.9259 21.1875 18.644Z" fill="url(#paint1_radial_3078_9462)"/>
<path d="M46.3702 8.68438C46.0335 8.41499 45.6006 8.13543 45.112 7.88383C44.2766 7.51786 43.0742 7.11124 41.449 7.11124C39.7174 7.11124 38.1504 7.42129 36.796 7.78726C36.0265 8.00836 35.3151 8.22184 34.6721 8.5014V23.1908H38.6719V10.9717C38.9225 10.8853 39.201 10.8166 39.4794 10.7302C39.9984 10.6337 40.6819 10.5091 41.449 10.5091C43.8134 10.5091 44.9855 11.6858 44.9855 14.0697V23.1908H48.9954V14.0697C48.9954 13.2971 48.8992 12.71 48.7751 12.2449C48.7169 11.9654 48.6511 11.7519 48.5625 11.5587C48.803 11.3453 49.0814 11.1928 49.4181 11.0377C49.9472 10.7861 50.7446 10.5066 51.7648 10.5066C54.1394 10.5066 55.3013 11.6833 55.3013 14.0671V23.1883H59.3112V14.0697C59.3112 9.70857 56.7266 7.11124 51.7648 7.11124C50.1978 7.11124 48.9954 7.4772 48.0055 7.88383C47.4486 8.13543 46.9575 8.41499 46.5246 8.68438H46.3702ZM68.1259 7.11124C66.2804 7.11124 64.8856 7.4772 63.8097 7.94228C63.2224 8.22184 62.7034 8.5014 62.2705 8.81145L63.8097 11.5994C64.1844 11.3783 64.5793 11.1953 65.0501 11.0403C65.8197 10.7887 66.8956 10.5091 68.1259 10.5091C70.5865 10.5091 71.6624 11.5613 71.6624 13.2971C71.3536 13.2285 71.0194 13.1725 70.6524 13.142C69.9992 13.0455 69.1056 12.987 68.1234 12.987C62.7313 12.987 60.4226 15.3023 60.4226 18.3926C60.4226 21.4906 62.7288 23.8059 68.1234 23.8059C70.1233 23.8059 71.9105 23.5543 73.3914 23.2849C74.2192 23.1197 74.9584 22.9367 75.6698 22.7258V13.9146C75.6723 9.70858 73.0851 7.11124 68.1259 7.11124ZM68.1259 20.4105C65.5109 20.4105 64.5793 19.4753 64.5793 18.3926C64.5793 17.31 65.5109 16.3849 68.1259 16.3849C69.0778 16.3849 69.8853 16.4434 70.5865 16.5399C70.989 16.5679 71.3257 16.6365 71.6624 16.695V19.948C71.3257 20.0344 70.989 20.103 70.5865 20.1615C69.941 20.286 69.0778 20.4105 68.1259 20.4105ZM84.6414 10.5091C85.7755 10.5091 86.7071 10.7302 87.4387 10.9717C87.8413 11.1267 88.1779 11.2817 88.4868 11.4342L89.5627 8.34637C89.1019 8.13289 88.6108 7.91179 88.0539 7.7288C87.1021 7.39079 85.8439 7.11124 84.3326 7.11124C82.601 7.11124 81.1302 7.42129 79.8999 7.78726C79.2164 8.00836 78.6013 8.22184 78.0165 8.5014V23.1908H82.0264V10.9717C82.2669 10.8853 82.5453 10.8166 82.8238 10.7302C83.2845 10.6337 83.9301 10.5091 84.6414 10.5091ZM96.5319 16.85L101.309 23.1908H105.924L99.0026 14.0697L105.154 7.7288H100.539L94.0687 14.3772H93.9143V1.54297H89.9146V23.1908H93.9143V19.4753L96.5319 16.85ZM121.055 15.4598C121.055 10.5091 117.67 7.11124 112.893 7.11124C108.124 7.11124 104.731 10.5091 104.731 15.4598C104.731 20.2555 108.25 23.8084 113.663 23.8084C115.422 23.8084 116.835 23.3738 117.91 22.8808C118.498 22.6012 119.055 22.2912 119.515 21.9532L117.976 19.1652C117.667 19.3863 117.293 19.5998 116.9 19.7828C116.189 20.131 115.209 20.4105 113.969 20.4105C111.048 20.4105 109.663 19.0102 109.017 17.3125H119.052L121.055 15.4598ZM109.02 14.0697C109.356 12.0619 110.893 10.5091 112.893 10.5091C114.903 10.5091 116.402 12.0619 116.748 14.0697H109.02ZM124.794 3.40583L123.254 7.7288H120.632V10.9717H123.257V17.4676C123.257 21.5211 125.535 23.8084 129.872 23.8084C130.834 23.8084 131.631 23.5949 132.343 23.3459C132.737 23.1908 133.082 23.0358 133.418 22.8833L132.494 19.7853C132.302 19.9099 132.092 20.0064 131.841 20.103C131.446 20.258 130.889 20.4131 130.178 20.4131C128.333 20.4131 127.257 19.3228 127.257 17.4701V10.9717H132.034V7.7288H127.257V3.40583H124.794Z" fill="#151515"/>
<path d="M137.646 6.42481H138.646C138.839 6.42481 138.993 6.44514 139.097 6.49343C139.203 6.53155 139.279 6.60017 139.347 6.70691C139.406 6.80348 139.433 6.92039 139.433 7.04492C139.433 7.19994 139.385 7.33464 139.279 7.44138C139.183 7.55828 139.018 7.62436 138.808 7.65486C138.884 7.69298 138.942 7.7311 138.98 7.77176C139.066 7.84801 139.152 7.94458 139.231 8.07165L139.616 8.67905H139.251L138.952 8.21651C138.866 8.08182 138.798 7.97508 138.74 7.89884C138.682 7.83022 138.633 7.78193 138.585 7.75397C138.547 7.72602 138.499 7.70569 138.451 7.69552C138.423 7.68535 138.365 7.68536 138.287 7.68536H137.94V8.67905H137.646V6.42481ZM137.945 7.42105H138.58C138.714 7.42105 138.821 7.41088 138.897 7.38293C138.973 7.35497 139.031 7.30668 139.069 7.24823C139.107 7.17961 139.127 7.11353 139.127 7.04492C139.127 6.93818 139.089 6.85177 139.021 6.78315C138.945 6.70691 138.818 6.67641 138.656 6.67641H137.945V7.42105Z" fill="#151515"/>
<path d="M138.502 5.35524C139.128 5.35524 139.695 5.60684 140.097 6.02109C140.51 6.42518 140.76 6.997 140.76 7.62219C140.76 8.24738 140.51 8.80904 140.097 9.22329C139.695 9.63754 139.125 9.88914 138.502 9.88914C137.88 9.88914 137.31 9.63754 136.908 9.22329C136.495 8.80904 136.244 8.24738 136.244 7.62219C136.244 6.997 136.495 6.42518 136.908 6.02109C137.31 5.60684 137.88 5.35524 138.502 5.35524ZM139.839 6.28286C139.492 5.93469 139.021 5.72375 138.502 5.72375C137.983 5.72375 137.513 5.93723 137.166 6.28286C136.819 6.62087 136.609 7.10374 136.609 7.62473C136.609 8.14573 136.821 8.61843 137.166 8.96661C137.513 9.30462 137.983 9.51555 138.502 9.51555C139.021 9.51555 139.492 9.30207 139.839 8.96661C140.186 8.61843 140.396 8.14573 140.396 7.62473C140.396 7.1012 140.186 6.61833 139.839 6.28286Z" fill="#151515"/>
<defs>
<radialGradient id="paint0_radial_3078_9462" cx="0" cy="0" r="1" gradientUnits="userSpaceOnUse" gradientTransform="translate(12.9618 6.80759) scale(15.0248 15.0863)">
<stop offset="0.156" stop-color="#FEEA10"/>
<stop offset="0.231" stop-color="#FFDE0D"/>
<stop offset="0.365" stop-color="#FCBE0E"/>
<stop offset="0.541" stop-color="#F28D1C"/>
<stop offset="0.763" stop-color="#E73438"/>
<stop offset="0.796" stop-color="#E73239"/>
<stop offset="0.841" stop-color="#E62247"/>
<stop offset="0.893" stop-color="#CF1163"/>
<stop offset="0.935" stop-color="#B4107F"/>
</radialGradient>
<radialGradient id="paint1_radial_3078_9462" cx="0" cy="0" r="1" gradientUnits="userSpaceOnUse" gradientTransform="translate(34.4868 -3.15656) scale(43.8253 44.0046)">
<stop offset="0.156" stop-color="#FEEA10"/>
<stop offset="0.231" stop-color="#FFDE0D"/>
<stop offset="0.365" stop-color="#FCBE0E"/>
<stop offset="0.541" stop-color="#F28D1C"/>
<stop offset="0.763" stop-color="#E73438"/>
<stop offset="0.796" stop-color="#E73239"/>
<stop offset="0.841" stop-color="#E62247"/>
<stop offset="0.893" stop-color="#CF1163"/>
<stop offset="0.935" stop-color="#B4107F"/>
</radialGradient>
</defs>
</svg>
